# xmcd CD database file
# Copyright (C) 1993-1998 Ti Kan
#
# Track frame offsets:
#  150
#  15632
#  30825
#  46355
#  64282
#  84182
#  93297
#  111787
#  129157
#  147780
#  164815
#  182105
#
# Disc length: 2594 seconds
#
# Revision: 1
# Processed by: cddbd v1.4b41PL1 Copyright (c) Steve Scherf et al.
# Submitted via: CDWizzard Release:4.35
#
DISCID=930a200c
DTITLE=Rudimentary Peni - Pope Adrian 37th Psychristiatric
DYEAR=1900
DGENRE=
TTITLE0=Pogo Pope
TTITLE1=The Pope With No Name
TTITLE2=Hadrianich Relique
TTITLE3=Il Papus Puss
TTITLE4=Muse Sick (Sic)
TTITLE5=Vatican't City Hearse
TTITLE6=I'm A Dream
TTITLE7=We're Gonna Destroy Life the World Gets Higher and Higher
TTITLE8=Pills, Popes and Potions
TTITLE9=Ireland Sun
TTITLE10=Regicide Chaz III
TTITLE11=Iron Lung
EXTD=
EXTT0=
EXTT1=
EXTT2=
EXTT3=
EXTT4=
EXTT5=
EXTT6=
EXTT7=
EXTT8=
EXTT9=
EXTT10=
EXTT11=
PLAYORDER=
